<svg version="1.1" xmlns="http://www.w3.org/2000/svg" xmlns:xlink="http://www.w3.org/1999/xlink" viewBox="0,0,1024,1024">
	<desc>place icon - Licensed under Apache License v2.0 (http://www.apache.org/licenses/LICENSE-2.0) - Created with Iconfu.com - Derivative work of Material icons (Copyright Google Inc.)</desc>
	<defs>
		<clipPath id="clip-VBIozufW">
			<path d="M759.9,405.76c0,185.92 -247.9,460.38 -247.9,460.38c0,0 -247.9,-274.46 -247.9,-460.38c0,-137.05 110.85,-247.9 247.9,-247.9c137.05,0 247.9,110.85 247.9,247.9zM600.54,405.76c0,-48.87 -39.67,-88.54 -88.54,-88.54c-48.87,0 -88.54,39.67 -88.54,88.54c0,48.87 39.67,88.54 88.54,88.54c48.87,0 88.54,-39.67 88.54,-88.54z" fill="none"/>
		</clipPath>
		<linearGradient x1="819.64" y1="0" x2="204.36" y2="1024" gradientUnits="userSpaceOnUse" id="color-dckflqsl">
			<stop offset="0" stop-color="#d81b60" stop-opacity="0.68"/>
			<stop offset="1" stop-color="#d81b60" stop-opacity="0.33"/>
		</linearGradient>
		<filter id="filter-q0Y7j40q" x="0%" y="0%" width="100%" height="100%" color-interpolation-filters="sRGB">
			<feColorMatrix values="1 0 0 0 0 0 1 0 0 0 0 0 1 0 0 0 0 0 0.13 0" in="SourceGraphic"/>
			<feOffset dx="5.19" dy="5.19"/>
			<feGaussianBlur stdDeviation="4.03" result="blur0"/>
			<feColorMatrix values="1 0 0 0 0 0 1 0 0 0 0 0 1 0 0 0 0 0 0.2 0" in="SourceGraphic"/>
			<feOffset dx="7.78" dy="7.78"/>
			<feGaussianBlur stdDeviation="7.33" result="blur1"/>
			<feMerge>
				<feMergeNode in="blur0"/>
				<feMergeNode in="blur1"/>
			</feMerge>
		</filter>
	</defs>
	<g fill="none" fill-rule="nonzero" style="mix-blend-mode: normal">
		<path d="M846.94,405.76c0,219.41 -270.34,518.72 -270.34,518.72c-16.5,18.27 -39.97,28.7 -64.59,28.7c-24.62,0 -48.09,-10.43 -64.59,-28.7c0,0 -270.34,-299.31 -270.34,-518.72c0,-185.12 149.82,-334.94 334.94,-334.94c185.12,0 334.94,149.82 334.94,334.94zM513.5,405.76c0,-0.4 -0.07,-0.67 -0.45,-1.05c-0.38,-0.38 -0.65,-0.45 -1.05,-0.45c-0.4,0 -0.67,0.07 -1.05,0.45c-0.38,0.38 -0.45,0.65 -0.45,1.05c0,0.4 0.07,0.67 0.45,1.05c0.38,0.38 0.65,0.45 1.05,0.45c0.4,0 0.67,-0.07 1.05,-0.45c0.38,-0.38 0.45,-0.65 0.45,-1.05zM512,157.86c-137.05,0 -247.9,110.85 -247.9,247.9c0,185.92 247.9,460.38 247.9,460.38c0,0 247.9,-274.46 247.9,-460.38c0,-137.05 -110.85,-247.9 -247.9,-247.9zM512,494.3c-48.87,0 -88.54,-39.67 -88.54,-88.54c0,-48.87 39.67,-88.54 88.54,-88.54c48.87,0 88.54,39.67 88.54,88.54c0,48.87 -39.67,88.54 -88.54,88.54z" fill="#000000"/>
		<path d="M759.9,405.76c0,185.92 -247.9,460.38 -247.9,460.38c0,0 -247.9,-274.46 -247.9,-460.38c0,-137.05 110.85,-247.9 247.9,-247.9c137.05,0 247.9,110.85 247.9,247.9zM600.54,405.76c0,-48.87 -39.67,-88.54 -88.54,-88.54c-48.87,0 -88.54,39.67 -88.54,88.54c0,48.87 39.67,88.54 88.54,88.54c48.87,0 88.54,-39.67 88.54,-88.54z" fill="url(#color-dckflqsl)"/>
		<g clip-path="url(#clip-VBIozufW)">
			<path d="M217.04,887.27v-776.47h563.99v776.47zM512,157.86c-137.05,0 -247.9,110.85 -247.9,247.9c0,185.92 247.9,460.38 247.9,460.38c0,0 247.9,-274.46 247.9,-460.38c0,-137.05 -110.85,-247.9 -247.9,-247.9zM512,494.3c-48.87,0 -88.54,-39.67 -88.54,-88.54c0,-48.87 39.67,-88.54 88.54,-88.54c48.87,0 88.54,39.67 88.54,88.54c0,48.87 -39.67,88.54 -88.54,88.54z" filter="url(#filter-q0Y7j40q)" fill="#000000"/>
		</g>
	</g>
</svg>